<?xml version="1.0" standalone="no"?>
<!DOCTYPE svg PUBLIC "-//W3C//DTD SVG 20010904//EN"
 "http://www.w3.org/TR/2001/REC-SVG-20010904/DTD/svg10.dtd">
<svg version="1.0" xmlns="http://www.w3.org/2000/svg"
 width="700.000000pt" height="700.000000pt" viewBox="0 0 700.000000 700.000000"
 preserveAspectRatio="xMidYMid meet">
<metadata>
Created by potrace 1.14, written by Peter Selinger 2001-2017
</metadata>
<g transform="translate(0.000000,700.000000) scale(0.100000,-0.100000)"
fill="#000000" stroke="none">
<path d="M3205 6989 c-599 -51 -1176 -257 -1674 -596 -684 -466 -1188 -1168
-1405 -1958 -77 -283 -114 -533 -123 -835 -28 -970 334 -1883 1018 -2569 1260
-1265 3266 -1380 4659 -268 670 535 1127 1304 1269 2137 37 217 46 331 46 600
0 426 -49 733 -177 1115 -390 1162 -1373 2045 -2568 2304 -332 73 -715 98
-1045 70z m417 -1645 c60 -20 122 -74 158 -138 l30 -51 1 -1055 c1 -580 5
-1146 8 -1257 l6 -201 936 933 c569 567 954 943 983 960 99 58 233 41 324 -40
72 -65 96 -120 97 -220 0 -70 -4 -86 -29 -130 -38 -67 -2410 -2439 -2478
-2479 -63 -36 -143 -44 -224 -22 l-59 16 -1089 1093 c-1160 1164 -1341 1350
-1371 1412 -14 30 -19 60 -18 115 1 120 54 203 166 262 55 29 185 32 234 5 62
-33 285 -251 1098 -1070 l820 -827 6 537 c3 296 7 858 8 1248 l1 710 33 60
c36 63 104 125 161 143 48 15 147 14 198 -4z"/>
</g>
</svg>
