<svg xmlns="http://www.w3.org/2000/svg" width="121" height="115.15" viewBox="0 0 121 115.15"><g transform="translate(0 0.001)"><path d="M107.547,40.793l12.761-12.761a2.363,2.363,0,0,0-.534-3.742l-15.341-8.424a2.363,2.363,0,0,0-2.275,4.143l12.581,6.908L103.788,37.868,64.4,16.239,75.35,5.288l11.07,6.079a2.363,2.363,0,0,0,2.275-4.143L76.07.291a2.362,2.362,0,0,0-2.808.4L60.5,13.454,47.738.692a2.364,2.364,0,0,0-2.808-.4l-43.7,24a2.363,2.363,0,0,0-.534,3.742L13.453,40.793.692,53.553A2.363,2.363,0,0,0,1.226,57.3l13.207,7.252v24.24a2.364,2.364,0,0,0,1.226,2.072l43.7,24a2.363,2.363,0,0,0,2.275,0l43.7-24a2.364,2.364,0,0,0,1.226-2.072V64.548L119.774,57.3a2.363,2.363,0,0,0,.534-3.742ZM60.5,62.094l-38.794-21.3L60.5,19.489l38.794,21.3ZM45.651,5.288,56.6,16.239,17.212,37.868,6.262,26.917ZM17.214,43.718,56.6,65.346,45.651,76.3,6.262,54.669ZM101.841,87.39l-38.978,21.4V84.635a2.363,2.363,0,1,0-4.727,0v24.158L19.159,87.39V67.144L44.93,81.295a2.363,2.363,0,0,0,2.808-.4L60.5,68.132,73.262,80.894a2.363,2.363,0,0,0,2.808.4l25.771-14.151ZM75.35,76.3,64.4,65.345l39.388-21.628L114.74,54.668Zm0,0" transform="translate(0)" fill="#240068"/><path d="M397.164,52.9a2.365,2.365,0,1,0-1.671-.693A2.384,2.384,0,0,0,397.164,52.9Zm0,0" transform="translate(-301.498 -36.791)" fill="#240068"/><path d="M248.363,314.926a2.364,2.364,0,1,0,1.671.692A2.378,2.378,0,0,0,248.363,314.926Zm0,0" transform="translate(-187.863 -240.5)" fill="#240068"/></g></svg>