<svg xmlns="http://www.w3.org/2000/svg" width="72" height="72" viewBox="0 0 72 72"><g transform="translate(-1854 -149)"><g transform="translate(-193 78)"><rect width="72" height="72" transform="translate(2047 71)" fill="#0a0a26"/></g><g transform="translate(1818.695 171.765)"><path d="M76.543,0H63.027A1.638,1.638,0,0,0,61.38,1.623V24.846a1.637,1.637,0,0,0,1.647,1.624H79.583a1.637,1.637,0,0,0,1.647-1.624V5.019Zm.389,2.429,2.054,2.2H76.932Zm2.915,22.417a.263.263,0,0,1-.264.26H63.027a.263.263,0,0,1-.264-.26V1.623a.262.262,0,0,1,.264-.259H75.548V5.311a.687.687,0,0,0,.692.681h3.607V24.847ZM65.4,9.059,63.959,3.452h1.048l.667,2.8c.094.391.184.788.262,1.154.089-.376.2-.775.3-1.166l.749-2.789h.962l.683,2.808c.089.367.177.745.251,1.11.076-.325.161-.659.248-1l.032-.125L69.9,3.453h1.027L69.319,9.059h-.961l-.707-2.878c-.087-.354-.164-.678-.227-1-.074.316-.16.639-.265,1l-.8,2.873H65.4Zm6.32-1.192h6.189a.511.511,0,1,1,0,1.021H71.722a.511.511,0,1,1,0-1.021Zm6.707,3.921a.515.515,0,0,1-.518.511H65.03a.511.511,0,1,1,0-1.021H77.911A.515.515,0,0,1,78.43,11.788Zm0,3.022a.515.515,0,0,1-.518.511H65.03a.511.511,0,1,1,0-1.021H77.911A.515.515,0,0,1,78.43,14.809Zm0,3.022a.515.515,0,0,1-.518.511H65.03a.511.511,0,1,1,0-1.021H77.911A.515.515,0,0,1,78.43,17.831Zm0,3.064a.515.515,0,0,1-.518.511H65.03a.511.511,0,1,1,0-1.021H77.911A.515.515,0,0,1,78.43,20.9Z" fill="#7442ff"/></g></g></svg>