<svg xmlns="http://www.w3.org/2000/svg" width="475.213" height="436.167" viewBox="0 0 475.213 436.167"><g transform="translate(0 0.027)"><g transform="translate(23.33 -0.027)"><path d="M117.654,164.594,45,181.861a2.341,2.341,0,0,1-2.819-1.74L19.1,82.953a2.341,2.341,0,0,1,1.728-2.819L65.559,69.51l37.4,23.284,16.4,69.019a2.328,2.328,0,0,1-1.7,2.782Z" transform="translate(-19.037 15.706)" fill="#4444ce"/><path d="M94.869,92.769,57.467,69.51l-2.377.564,8.811,37.1L96.45,99.436Z" transform="translate(-10.909 15.706)" fill="#3030aa"/><path d="M94.37,92.512,64.2,99.681,57.03,69.51Z" transform="translate(-10.471 15.706)" fill="none"/><path d="M94.37,92.512,64.2,99.681,57.03,69.51Z" transform="translate(-10.471 15.706)" fill="#4444ce"/><rect width="55.244" height="35.012" transform="translate(20.381 132.57) rotate(-13.36)" fill="#3030aa"/><path d="M53.941,123.47,45.02,137.955l23.407-5.564Z" transform="translate(-13.179 27.873)" fill="#9797eb"/><path d="M59.83,135.792l32.23-7.659-.735-3.1L73.3,113.93Z" transform="translate(-9.84 25.722)" fill="#9797eb"/><path d="M62.4,113.574A5.907,5.907,0,1,1,55.3,109.2,5.907,5.907,0,0,1,62.4,113.574Z" transform="translate(-11.887 24.619)" fill="#9797eb"/><path d="M364.77,99.073,311.756,74.38a1.826,1.826,0,0,1-.882-2.451L343.961,1.036a1.826,1.826,0,0,1,2.451-.882l32.647,15.208L390.651,47.8,367.2,98.191a1.826,1.826,0,0,1-2.426.882Z" transform="translate(46.723 0.027)" fill="#4444ce"/><path d="M380.727,45.149,369.048,12.7l-1.728-.809L354.71,38.961l23.75,11.054Z" transform="translate(56.647 2.715)" fill="#3030aa"/><path d="M380.059,44.817,358.05,34.572,368.295,12.55Z" transform="translate(57.4 2.863)" fill="none"/><path d="M380.059,44.817,358.05,34.572,368.295,12.55Z" transform="translate(57.4 2.863)" fill="#4444ce"/><path d="M364.631,67.845,325.415,49.573c-2.647-1.225-4.9,2.7-2.3,3.934l39.215,18.26c2.635,1.225,4.9-2.684,2.292-3.922Z" transform="translate(49.263 11.158)" fill="#9797eb"/><path d="M332.57,33.225,371.785,51.5c2.635,1.225,4.9-2.7,2.3-3.934L334.874,29.3c-2.635-1.225-4.9,2.684-2.292,3.922Z" transform="translate(51.398 6.588)" fill="#9797eb"/><path d="M327.623,43.635l39.215,18.272c2.635,1.225,4.9-2.7,2.292-3.934l-39.215-18.26C327.28,38.488,325.012,42.4,327.623,43.635Z" transform="translate(50.279 8.935)" fill="#9797eb"/><path d="M260.953,263.932l-1.225-4.007a3.823,3.823,0,0,0-2.868-2.622l-29.534-6.287a3.811,3.811,0,0,0-4.522,2.941l-12.059,56.507a3.983,3.983,0,0,0,3.064,4.706l67.119,14.277a3.971,3.971,0,0,0,4.706-3.064l10.515-49.3a3.811,3.811,0,0,0-2.941-4.534l-29.828-6.36a3.333,3.333,0,0,1-2.426-2.255Z" transform="translate(24.168 56.612)" fill="#3030aa"/><path d="M293.257,269.938l-29.558-6.3a3.787,3.787,0,0,0-3.676,1.225l-2.745,3.125a3.309,3.309,0,0,1-3.186,1.066l-29.828-6.36a3.823,3.823,0,0,0-4.534,2.929l-8.983,42.132a3.983,3.983,0,0,0,3.064,4.706l67.119,14.35a3.971,3.971,0,0,0,4.706-3.064l10.515-49.3A3.811,3.811,0,0,0,293.257,269.938Z" transform="translate(24.168 59.245)" fill="#4444ce"/></g><g transform="translate(0 408.395)" opacity="0.5"><ellipse cx="237.607" cy="13.872" rx="237.607" ry="13.872" fill="#5a30ce"/></g><g transform="translate(82.707 55.937)"><rect width="315.706" height="247.018" rx="11.89" fill="#407bff"/><rect width="315.706" height="247.018" rx="11.89" fill="#baa1ff" opacity="0.4"/><rect width="305.902" height="225.389" rx="7.89" transform="translate(4.902 16.715)" fill="#010116" opacity="0.8"/><rect width="8.064" height="8.064" rx="1.89" transform="translate(16.764 3.934)" fill="#fff" opacity="0.3"/><rect width="8.064" height="8.064" rx="1.89" transform="translate(29.852 3.934)" fill="#fff" opacity="0.5"/><rect width="8.064" height="8.064" rx="1.89" transform="translate(42.928 3.934)" fill="#fff" opacity="0.7"/><path d="M185.553,56.745V51.623l-2.537,4.24h-.637l-2.537-4.179v5.061H178.47V49H179.7l3.064,5.11L185.725,49h1.225v7.72Z" transform="translate(-42.467 -44.882)" fill="#fff"/><path d="M192.665,50.51l-2.757,6.36a2.99,2.99,0,0,1-.931,1.36,2.292,2.292,0,0,1-1.336.392,2.647,2.647,0,0,1-.87-.147,1.9,1.9,0,0,1-.711-.4l.551-1a1.666,1.666,0,0,0,.466.294,1.471,1.471,0,0,0,.551.11.944.944,0,0,0,.6-.184,1.654,1.654,0,0,0,.429-.637l.11-.233-2.574-5.907h1.434l1.85,4.363,1.863-4.363Z" transform="translate(-40.756 -44.542)" fill="#fff"/><path d="M196.165,50.225v2.341h3.787v1.225h-3.738v2.966H194.78V49h5.637v1.225Z" transform="translate(-38.79 -44.882)" fill="#fff"/><path d="M200.378,49.8a.846.846,0,0,1,0-1.225.9.9,0,0,1,.637-.233.931.931,0,0,1,.625.221.747.747,0,0,1,.257.576.858.858,0,0,1-.882.858.944.944,0,0,1-.637-.2Zm-.061,1.225h1.373v5.895h-1.373Z" transform="translate(-37.587 -45.031)" fill="#fff"/><path d="M202.882,48.64h1.373v8.186H202.87Z" transform="translate(-36.966 -44.964)" fill="#fff"/><path d="M211.112,53.9h-4.62a1.581,1.581,0,0,0,.637,1.029,2.046,2.046,0,0,0,1.225.392,2.12,2.12,0,0,0,1.593-.649l.747.858a2.585,2.585,0,0,1-1,.711,3.676,3.676,0,0,1-1.373.245,3.6,3.6,0,0,1-1.7-.392,2.769,2.769,0,0,1-1.152-1.066,3.174,3.174,0,0,1-.392-1.569,2.99,2.99,0,0,1,.392-1.544,2.684,2.684,0,0,1,1.078-1.078,3.2,3.2,0,0,1,1.569-.38,3.064,3.064,0,0,1,1.544.38,2.757,2.757,0,0,1,1.054,1.066,3.223,3.223,0,0,1,.38,1.593A1.751,1.751,0,0,1,211.112,53.9Zm-4.069-1.949A1.654,1.654,0,0,0,206.479,53h3.346a1.691,1.691,0,0,0-.539-1.042,1.8,1.8,0,0,0-2.243,0Z" transform="translate(-36.47 -44.553)" fill="#fff"/><path d="M211.621,56.3a3.676,3.676,0,0,1-1.091-.478l.576-1.029a3.431,3.431,0,0,0,.956.429,3.812,3.812,0,0,0,1.1.159c.821,0,1.225-.221,1.225-.649a.441.441,0,0,0-.319-.429,5.135,5.135,0,0,0-1-.233,7.769,7.769,0,0,1-1.225-.257,1.666,1.666,0,0,1-.8-.5,1.385,1.385,0,0,1-.331-.993,1.556,1.556,0,0,1,.7-1.336,3.1,3.1,0,0,1,1.887-.5,5.11,5.11,0,0,1,1.225.135,3.113,3.113,0,0,1,.993.368l-.527,1.054A3.285,3.285,0,0,0,213.3,51.6a2.01,2.01,0,0,0-.919.172.552.552,0,0,0-.319.49.478.478,0,0,0,.343.466,6.043,6.043,0,0,0,1.042.257,7.5,7.5,0,0,1,1.152.257,1.789,1.789,0,0,1,.784.478,1.4,1.4,0,0,1,.319.968,1.532,1.532,0,0,1-.711,1.324,3.37,3.37,0,0,1-1.948.5A5.429,5.429,0,0,1,211.621,56.3Z" transform="translate(-35.239 -44.55)" fill="#fff"/></g><g transform="translate(111.235 117.198)"><path d="M123.42,101.137l-1.36-2.451a2.573,2.573,0,0,0-2.255-1.336H99.413a2.573,2.573,0,0,0-2.573,2.573v38.97a2.684,2.684,0,0,0,2.647,2.659h46.335a2.684,2.684,0,0,0,2.672-2.684V104.862a2.573,2.573,0,0,0-2.573-2.573H125.381A2.23,2.23,0,0,1,123.42,101.137Z" transform="translate(-89.4 -95.242)" fill="#407bff"/><path d="M123.42,101.137l-1.36-2.451a2.573,2.573,0,0,0-2.255-1.336H99.413a2.573,2.573,0,0,0-2.573,2.573v38.97a2.684,2.684,0,0,0,2.647,2.659h46.335a2.684,2.684,0,0,0,2.672-2.684V104.862a2.573,2.573,0,0,0-2.573-2.573H125.381A2.23,2.23,0,0,1,123.42,101.137Z" transform="translate(-89.4 -95.242)" fill="#fff" opacity="0.3"/><rect width="39.521" height="29.546" transform="translate(13.163 8.603)" fill="#263238"/><rect width="39.521" height="29.546" transform="translate(13.163 8.603)" fill="#fff" opacity="0.8"/><rect width="45.232" height="33.823" transform="translate(10.308 11.568)" fill="#263238"/><rect width="45.232" height="33.823" transform="translate(10.308 11.568)" fill="#fff" opacity="0.9"/><path d="M154.446,105.761h-27.12a4.007,4.007,0,0,0-3,1.152l-1.777,2.132a3.272,3.272,0,0,1-2.451,1H93.564c-1.838,0-3.064.993-2.745,2.218l6.47,25.073a3.431,3.431,0,0,0,3.248,2.316h45.931a3.431,3.431,0,0,0,3.247-2.316l7.573-29.411C157.607,106.753,156.333,105.761,154.446,105.761Z" transform="translate(-90.769 -93.347)" fill="#407bff"/><g transform="translate(0 12.41)" opacity="0.6"><path d="M154.446,105.761h-27.12a4.007,4.007,0,0,0-3,1.152l-1.777,2.132a3.272,3.272,0,0,1-2.451,1H93.564c-1.838,0-3.064.993-2.745,2.218l6.47,25.073a3.431,3.431,0,0,0,3.248,2.316h45.931a3.431,3.431,0,0,0,3.247-2.316l7.573-29.411C157.607,106.753,156.333,105.761,154.446,105.761Z" transform="translate(-90.769 -105.756)" fill="#9d7bfc"/></g><path d="M98.3,146.532a3.088,3.088,0,1,1,0-6.127h49.436a3.088,3.088,0,0,1,0,6.127Z" transform="translate(-89.855 -85.54)" fill="#263238"/><path d="M98.3,146.532a3.088,3.088,0,1,1,0-6.127h49.436a3.088,3.088,0,0,1,0,6.127Z" transform="translate(-89.855 -85.54)" fill="#fff" opacity="0.6"/><path d="M198.64,101.137l-1.36-2.451a2.586,2.586,0,0,0-2.255-1.336H174.634a2.574,2.574,0,0,0-2.574,2.574v38.97a2.684,2.684,0,0,0,2.672,2.684h46.335a2.672,2.672,0,0,0,2.672-2.684V104.862a2.573,2.573,0,0,0-2.573-2.573H200.589a2.23,2.23,0,0,1-1.948-1.152Z" transform="translate(-72.44 -95.242)" fill="#407bff"/><path d="M198.64,101.137l-1.36-2.451a2.586,2.586,0,0,0-2.255-1.336H174.634a2.574,2.574,0,0,0-2.574,2.574v38.97a2.684,2.684,0,0,0,2.672,2.684h46.335a2.672,2.672,0,0,0,2.672-2.684V104.862a2.573,2.573,0,0,0-2.573-2.573H200.589a2.23,2.23,0,0,1-1.948-1.152Z" transform="translate(-72.44 -95.242)" fill="#fff" opacity="0.3"/><rect width="39.521" height="29.546" transform="translate(105.343 8.603)" fill="#263238"/><rect width="39.521" height="29.546" transform="translate(105.343 8.603)" fill="#fff" opacity="0.8"/><rect width="45.232" height="33.823" transform="translate(102.488 11.568)" fill="#263238"/><rect width="45.232" height="33.823" transform="translate(102.488 11.568)" fill="#fff" opacity="0.9"/><path d="M229.654,105.761H202.546a4,4,0,0,0-3,1.152l-1.789,2.132a3.272,3.272,0,0,1-2.451,1H168.772c-1.826,0-3.051.993-2.733,2.218,2.586,10.024,3.872,15.049,6.458,25.073a3.456,3.456,0,0,0,3.26,2.316h45.931a3.444,3.444,0,0,0,3.248-2.316l7.573-29.411C232.827,106.753,231.541,105.761,229.654,105.761Z" transform="translate(-73.809 -93.347)" fill="#7442ff"/><g transform="translate(92.18 12.409)" opacity="0.6"><path d="M229.654,105.761H202.546a4,4,0,0,0-3,1.152l-1.789,2.132a3.272,3.272,0,0,1-2.451,1H168.772c-1.826,0-3.051.993-2.733,2.218,2.586,10.024,3.872,15.049,6.458,25.073a3.456,3.456,0,0,0,3.26,2.316h45.931a3.444,3.444,0,0,0,3.248-2.316l7.573-29.411C232.827,106.753,231.541,105.761,229.654,105.761Z" transform="translate(-165.989 -105.756)" fill="#9d7bfc"/></g><path d="M173.64,146.532a3.088,3.088,0,1,1,0-6.127h49.423a3.088,3.088,0,1,1,0,6.127Z" transform="translate(-72.868 -85.54)" fill="#263238"/><path d="M173.64,146.532a3.088,3.088,0,1,1,0-6.127h49.423a3.088,3.088,0,1,1,0,6.127Z" transform="translate(-72.868 -85.54)" fill="#fff" opacity="0.6"/><path d="M123.42,181.414l-1.36-2.451a2.561,2.561,0,0,0-2.255-1.324H99.413a2.574,2.574,0,0,0-2.573,2.574v38.97a2.672,2.672,0,0,0,2.647,2.647h46.335a2.671,2.671,0,0,0,2.671-2.671V185.152a2.574,2.574,0,0,0-2.573-2.586H125.381a2.23,2.23,0,0,1-1.961-1.152Z" transform="translate(-89.4 -77.139)" fill="#407bff"/><path d="M123.42,181.414l-1.36-2.451a2.561,2.561,0,0,0-2.255-1.324H99.413a2.574,2.574,0,0,0-2.573,2.574v38.97a2.672,2.672,0,0,0,2.647,2.647h46.335a2.671,2.671,0,0,0,2.671-2.671V185.152a2.574,2.574,0,0,0-2.573-2.586H125.381a2.23,2.23,0,0,1-1.961-1.152Z" transform="translate(-89.4 -77.139)" fill="#fff" opacity="0.3"/><rect width="39.521" height="29.546" transform="translate(13.163 106.984)" fill="#263238"/><rect width="39.521" height="29.546" transform="translate(13.163 106.984)" fill="#fff" opacity="0.8"/><rect width="45.232" height="33.823" transform="translate(10.308 109.962)" fill="#263238"/><rect width="45.232" height="33.823" transform="translate(10.308 109.962)" fill="#fff" opacity="0.9"/><path d="M154.446,186.051h-27.12a4.007,4.007,0,0,0-3,1.152c-.723.858-1.078,1.225-1.777,2.132a3.26,3.26,0,0,1-2.451.993H93.564c-1.838,0-3.064.993-2.745,2.23,2.586,10.024,3.885,15.037,6.47,25.073a3.431,3.431,0,0,0,3.248,2.3h45.931a3.431,3.431,0,0,0,3.247-2.3l7.573-29.411C157.607,187.043,156.333,186.051,154.446,186.051Z" transform="translate(-90.769 -75.244)" fill="#407bff"/><g transform="translate(0 110.803)" opacity="0.6"><path d="M154.446,186.051h-27.12a4.007,4.007,0,0,0-3,1.152c-.723.858-1.078,1.225-1.777,2.132a3.26,3.26,0,0,1-2.451.993H93.564c-1.838,0-3.064.993-2.745,2.23,2.586,10.024,3.885,15.037,6.47,25.073a3.431,3.431,0,0,0,3.248,2.3h45.931a3.431,3.431,0,0,0,3.247-2.3l7.573-29.411C157.607,187.043,156.333,186.051,154.446,186.051Z" transform="translate(-90.769 -186.046)" fill="#9d7bfc"/></g><path d="M98.157,227.822a3.088,3.088,0,0,1,0-6.127h49.436a3.088,3.088,0,1,1,0,6.127Z" transform="translate(-89.712 -67.212)" fill="#263238"/><path d="M98.157,227.822a3.088,3.088,0,0,1,0-6.127h49.436a3.088,3.088,0,1,1,0,6.127Z" transform="translate(-89.712 -67.212)" fill="#fff" opacity="0.6"/><path d="M198.64,181.414l-1.36-2.451a2.574,2.574,0,0,0-2.255-1.323H174.634a2.574,2.574,0,0,0-2.574,2.574v38.97a2.672,2.672,0,0,0,2.672,2.672h46.335a2.659,2.659,0,0,0,2.672-2.672V185.152a2.574,2.574,0,0,0-2.573-2.586H200.589a2.23,2.23,0,0,1-1.949-1.152Z" transform="translate(-72.44 -77.139)" fill="#407bff"/><path d="M198.64,181.414l-1.36-2.451a2.574,2.574,0,0,0-2.255-1.323H174.634a2.574,2.574,0,0,0-2.574,2.574v38.97a2.672,2.672,0,0,0,2.672,2.672h46.335a2.659,2.659,0,0,0,2.672-2.672V185.152a2.574,2.574,0,0,0-2.573-2.586H200.589a2.23,2.23,0,0,1-1.949-1.152Z" transform="translate(-72.44 -77.139)" fill="#fff" opacity="0.3"/><rect width="39.521" height="29.546" transform="translate(105.343 106.984)" fill="#263238"/><rect width="39.521" height="29.546" transform="translate(105.343 106.984)" fill="#fff" opacity="0.8"/><rect width="45.232" height="33.823" transform="translate(102.488 109.962)" fill="#263238"/><rect width="45.232" height="33.823" transform="translate(102.488 109.962)" fill="#fff" opacity="0.9"/><path d="M229.654,186.051H202.546a4,4,0,0,0-3,1.152l-1.789,2.132a3.26,3.26,0,0,1-2.451.993H168.772c-1.826,0-3.051.993-2.733,2.23,2.586,10.024,3.872,15.037,6.458,25.073a3.444,3.444,0,0,0,3.309,2.3h45.931a3.444,3.444,0,0,0,3.247-2.3l7.573-29.411C232.827,187.043,231.541,186.051,229.654,186.051Z" transform="translate(-73.809 -75.244)" fill="#407bff"/><g transform="translate(92.18 110.803)" opacity="0.6"><path d="M229.654,186.051H202.546a4,4,0,0,0-3,1.152l-1.789,2.132a3.26,3.26,0,0,1-2.451.993H168.772c-1.826,0-3.051.993-2.733,2.23,2.586,10.024,3.872,15.037,6.458,25.073a3.444,3.444,0,0,0,3.309,2.3h45.931a3.444,3.444,0,0,0,3.247-2.3l7.573-29.411C232.827,187.043,231.541,186.051,229.654,186.051Z" transform="translate(-165.989 -186.046)" fill="#9d7bfc"/></g><path d="M173.64,227.822a3.088,3.088,0,1,1,0-6.127h49.423a3.088,3.088,0,1,1,0,6.127Z" transform="translate(-72.868 -67.212)" fill="#263238"/><path d="M173.64,227.822a3.088,3.088,0,1,1,0-6.127h49.423a3.088,3.088,0,1,1,0,6.127Z" transform="translate(-72.868 -67.212)" fill="#fff" opacity="0.6"/><path d="M272.16,181.414l-1.36-2.451a2.573,2.573,0,0,0-2.255-1.323H248.154a2.574,2.574,0,0,0-2.574,2.574v38.97a2.659,2.659,0,0,0,2.672,2.672h46.335a2.672,2.672,0,0,0,2.672-2.671V185.152a2.574,2.574,0,0,0-2.574-2.586H274.109a2.23,2.23,0,0,1-1.948-1.152Z" transform="translate(-55.863 -77.139)" fill="#407bff"/><path d="M272.16,181.414l-1.36-2.451a2.573,2.573,0,0,0-2.255-1.323H248.154a2.574,2.574,0,0,0-2.574,2.574v38.97a2.659,2.659,0,0,0,2.672,2.672h46.335a2.672,2.672,0,0,0,2.672-2.671V185.152a2.574,2.574,0,0,0-2.574-2.586H274.109a2.23,2.23,0,0,1-1.948-1.152Z" transform="translate(-55.863 -77.139)" fill="#fff" opacity="0.3"/><rect width="39.521" height="29.546" transform="translate(195.44 106.984)" fill="#263238"/><rect width="39.521" height="29.546" transform="translate(195.44 106.984)" fill="#fff" opacity="0.8"/><rect width="45.232" height="33.823" transform="translate(192.584 109.962)" fill="#263238"/><rect width="45.232" height="33.823" transform="translate(192.584 109.962)" fill="#fff" opacity="0.9"/><path d="M303.175,186.051H276.068a4.02,4.02,0,0,0-3.015,1.152c-.723.858-1.078,1.225-1.777,2.132a3.26,3.26,0,0,1-2.451.993H242.294c-1.826,0-3.051.993-2.745,2.23,2.6,10.024,3.885,15.037,6.47,25.073a3.444,3.444,0,0,0,3.247,2.3h45.992a3.444,3.444,0,0,0,3.26-2.3l7.573-29.411C306.288,187.043,305.062,186.051,303.175,186.051Z" transform="translate(-57.234 -75.244)" fill="#407bff"/><g transform="translate(182.268 110.803)" opacity="0.6"><path d="M303.175,186.051H276.068a4.02,4.02,0,0,0-3.015,1.152c-.723.858-1.078,1.225-1.777,2.132a3.26,3.26,0,0,1-2.451.993H242.294c-1.826,0-3.051.993-2.745,2.23,2.6,10.024,3.885,15.037,6.47,25.073a3.444,3.444,0,0,0,3.247,2.3h45.992a3.444,3.444,0,0,0,3.26-2.3l7.573-29.411C306.288,187.043,305.062,186.051,303.175,186.051Z" transform="translate(-239.502 -186.046)" fill="#9d7bfc"/></g><path d="M247,227.822a3.088,3.088,0,0,1,0-6.127H296.42a3.088,3.088,0,1,1,0,6.127Z" transform="translate(-56.153 -67.212)" fill="#263238"/><path d="M247,227.822a3.088,3.088,0,0,1,0-6.127H296.42a3.088,3.088,0,1,1,0,6.127Z" transform="translate(-56.153 -67.212)" fill="#fff" opacity="0.6"/><path d="M246.64,146.532a3.088,3.088,0,1,1,0-6.127h49.423a3.088,3.088,0,0,1,0,6.127Z" transform="translate(-56.408 -85.54)" fill="#263238"/><path d="M246.64,146.532a3.088,3.088,0,1,1,0-6.127h49.423a3.088,3.088,0,0,1,0,6.127Z" transform="translate(-56.408 -85.54)" fill="#fff" opacity="0.6"/><path d="M244.635,143.031l10.527,30.833a3.811,3.811,0,0,0,3.419,2.328h20.735a1.814,1.814,0,0,0,1.887-1.225l.613-2.243a1.556,1.556,0,0,1,1.63-1.054h20.931a1.7,1.7,0,0,0,1.814-2.328L297.2,143.007l-.135-5.147V98.24a2.61,2.61,0,0,0-2.61-2.61H273.715a2.6,2.6,0,0,0-2.292,1.348L270.039,99.5a2.267,2.267,0,0,1-1.985,1.164H247.122a2.623,2.623,0,0,0-2.622,2.623v34.6Z" transform="translate(-56.107 -95.63)" fill="#407bff"/><path d="M244.635,143.031l10.527,30.833a3.811,3.811,0,0,0,3.419,2.328h20.735a1.814,1.814,0,0,0,1.887-1.225l.613-2.243a1.556,1.556,0,0,1,1.63-1.054h20.931a1.7,1.7,0,0,0,1.814-2.328L297.2,143.007l-.135-5.147V98.24a2.61,2.61,0,0,0-2.61-2.61H273.715a2.6,2.6,0,0,0-2.292,1.348L270.039,99.5a2.267,2.267,0,0,1-1.985,1.164H247.122a2.623,2.623,0,0,0-2.622,2.623v34.6Z" transform="translate(-56.107 -95.63)" fill="#7aa3ff" opacity="0.6"/><path d="M244.61,134.315l10.527,30.833a3.811,3.811,0,0,0,3.419,2.328h20.735a1.814,1.814,0,0,0,1.887-1.225l.613-2.243a1.556,1.556,0,0,1,1.63-1.054h20.931a1.7,1.7,0,0,0,1.814-2.328L297.17,134.29Z" transform="translate(-56.082 -86.913)" fill="#407bff"/><path d="M244.61,134.315l10.527,30.833a3.811,3.811,0,0,0,3.419,2.328h20.735a1.814,1.814,0,0,0,1.887-1.225l.613-2.243a1.556,1.556,0,0,1,1.63-1.054h20.931a1.7,1.7,0,0,0,1.814-2.328L297.17,134.29Z" transform="translate(-56.082 -86.913)" fill="#9d7bfc" opacity="0.3"/><path d="M248.74,134.31H291.4l7.782,21.924H256.522Z" transform="translate(-55.151 -86.909)" opacity="0.1"/><rect width="42.659" height="34.571" transform="translate(236.248 47.401) rotate(180)" fill="#263238"/><rect width="42.659" height="34.571" transform="translate(236.248 47.401) rotate(180)" fill="#fff" opacity="0.8"/><path d="M248.74,138.894H291.4l8.652-24.914H257.38Z" transform="translate(-55.151 -91.493)" fill="#263238"/><path d="M248.74,138.894H291.4l8.652-24.914H257.38Z" transform="translate(-55.151 -91.493)" fill="#fff" opacity="0.9"/><path d="M248.74,134.31H291.4l8.652,18.468H257.38Z" transform="translate(-55.151 -86.909)" fill="#263238"/><path d="M248.74,134.31H291.4l8.652,18.468H257.38Z" transform="translate(-55.151 -86.909)" fill="#fff" opacity="0.9"/><path d="M248.74,136.057H291.4l13.958-9.5H262.7Z" transform="translate(-55.151 -88.656)" fill="#263238"/><path d="M248.74,136.057H291.4l13.958-9.5H262.7Z" transform="translate(-55.151 -88.656)" fill="#fff" opacity="0.8"/></g><g transform="translate(17.912 241.154)"><path d="M59.321,332.033c1.042-16.63,8.333-33.468,20.073-44.877,2.917-2.843,9.068-8.493,4.081-11.458-5.686-3.407-16.63,12.5-18.161,15.441,3.235-12.671,13.039-21.85,23.676-27.107,5.257-2.6,10.269-5.061,4.669-8.921s-17.72,5.5-20.514,9.522c6.642-9.277,15.037-18.566,23.627-24.117,9.5-6.127,5.208-16.348-4.583-8.456-6.127,4.9-16.041,17.157-16.041,17.157S91.82,217.733,87.09,214.841c-6.127-3.676-16.862,39.215-19.816,47.671.784-7.01,1.532-23.97-3.676-24.706-4.767-.662-3.6,41.568-4.706,49.019-.7,3.247-1.017,4.9-1.569,8.174-.515-5.625-3.676-20.453-8.407-18.737-4.02,1.446-1.532,12.549-.49,17.818,2.524,12.757,5.073,25.1,5.1,38.186Z" transform="translate(-7.381 -192.758)" fill="#7442ff"/><path d="M62.735,242.283c.711,9.179,1.348,18.492.466,27.7a154.417,154.417,0,0,1,6.544-15.686.551.551,0,0,1,.11-.245h0c.748-1.52,1.5-3.039,2.292-4.547.319-.6,1.1-.331.993.233,5.809-7.353,12.831-14.093,21.188-18.382.613-.319,1.029.613.441.944-9.706,5.49-16.912,13.223-24.068,22.377a138.367,138.367,0,0,0-7.647,18.934A40.441,40.441,0,0,1,85.9,256.45c.637-.2.993.784.355.993-12.929,4.081-22.058,13.125-25.735,24.975a.564.564,0,0,1-.123.257c-1.8,7.573-3.162,14.926-4.228,22.634,3.676-10.858,11.507-20.453,20.527-27.193.551-.4,1.029.527.49.931a59.423,59.423,0,0,0-21.47,31.286h0q-.588,7.353-.515,14.706a.515.515,0,1,1-1.017,0,181.567,181.567,0,0,1,6.887-48.5c2.377-11.14,1.52-22.769.625-33.982C61.607,241.744,62.686,241.523,62.735,242.283Z" transform="translate(-5.697 -188.999)" fill="#fff" opacity="0.4"/><path d="M65.331,336.043c-1.225-19.73-9.877-39.73-23.8-53.21-3.468-3.37-10.76-10.061-4.841-13.59,6.752-4.032,19.73,14.828,21.532,18.309-3.823-15.024-15.465-25.906-28.076-32.144-6.238-3.088-12.181-5.993-5.539-10.576s21.029,6.532,24.338,11.287c-7.88-11.029-17.831-22.059-28.027-28.6-11.262-7.255-6.189-19.387,5.429-10.012,7.206,5.809,19.032,20.306,19.032,20.306S26.79,200.444,32.4,197.05c7.206-4.412,19.987,46.568,23.5,56.531-.931-8.321-1.814-28.431,4.436-29.3,5.649-.8,4.265,49.288,5.576,58.136.833,3.86,1.225,5.8,1.863,9.693.613-6.667,4.326-24.252,9.975-22.218,4.755,1.716,1.814,14.877.576,21.127-3,15.1-6.017,29.8-6.042,45.257Z" transform="translate(-14.616 -196.78)" fill="#407bff"/><path d="M58.146,229.609c-.833,10.882-1.593,21.911-.551,32.843a180.745,180.745,0,0,0-7.745-18.6,1.053,1.053,0,0,0-.135-.294h0c-.882-1.814-1.777-3.615-2.708-5.392a.632.632,0,0,0-1.225.257c-6.887-8.75-15.208-16.7-25.122-21.826-.735-.38-1.225.735-.527,1.127,11.507,6.507,20.061,15.686,28.553,26.531A166.967,166.967,0,0,1,57.754,266.7a47.965,47.965,0,0,0-27.1-20.392c-.76-.233-1.225.931-.429,1.164,15.343,4.9,26.1,15.576,30.539,29.632a1.225,1.225,0,0,0,.147.306c2.132,8.983,3.762,17.708,5.012,26.85-4.338-12.88-13.652-24.277-24.338-32.254-.65-.49-1.225.625-.588,1.1a70.477,70.477,0,0,1,25.478,37.132s0,0,0,.061c.466,5.772.674,11.593.613,17.426a.613.613,0,0,0,1.225,0,215.476,215.476,0,0,0-8.174-57.524c-2.831-13.2-1.8-26.96-.748-40.306C59.482,228.959,58.22,228.7,58.146,229.609Z" transform="translate(-13.449 -192.33)" fill="#fff" opacity="0.2"/><path d="M65.331,336.043c-1.225-19.73-9.877-39.73-23.8-53.21-3.468-3.37-10.76-10.061-4.841-13.59,6.752-4.032,19.73,14.828,21.532,18.309-3.823-15.024-15.465-25.906-28.076-32.144-6.238-3.088-12.181-5.993-5.539-10.576s21.029,6.532,24.338,11.287c-7.88-11.029-17.831-22.059-28.027-28.6-11.262-7.255-6.189-19.387,5.429-10.012,7.206,5.809,19.032,20.306,19.032,20.306S26.79,200.444,32.4,197.05c7.206-4.412,19.987,46.568,23.5,56.531-.931-8.321-1.814-28.431,4.436-29.3,5.649-.8,4.265,49.288,5.576,58.136.833,3.86,1.225,5.8,1.863,9.693.613-6.667,4.326-24.252,9.975-22.218,4.755,1.716,1.814,14.877.576,21.127-3,15.1-6.017,29.8-6.042,45.257Z" transform="translate(-14.616 -196.78)" fill="#407bff"/><path d="M65.331,336.043c-1.225-19.73-9.877-39.73-23.8-53.21-3.468-3.37-10.76-10.061-4.841-13.59,6.752-4.032,19.73,14.828,21.532,18.309-3.823-15.024-15.465-25.906-28.076-32.144-6.238-3.088-12.181-5.993-5.539-10.576s21.029,6.532,24.338,11.287c-7.88-11.029-17.831-22.059-28.027-28.6-11.262-7.255-6.189-19.387,5.429-10.012,7.206,5.809,19.032,20.306,19.032,20.306S26.79,200.444,32.4,197.05c7.206-4.412,19.987,46.568,23.5,56.531-.931-8.321-1.814-28.431,4.436-29.3,5.649-.8,4.265,49.288,5.576,58.136.833,3.86,1.225,5.8,1.863,9.693.613-6.667,4.326-24.252,9.975-22.218,4.755,1.716,1.814,14.877.576,21.127-3,15.1-6.017,29.8-6.042,45.257Z" transform="translate(-14.616 -196.78)" fill="#6231e8" opacity="0.37"/><path d="M58.146,229.609c-.833,10.882-1.593,21.911-.551,32.843a180.745,180.745,0,0,0-7.745-18.6,1.053,1.053,0,0,0-.135-.294h0c-.882-1.814-1.777-3.615-2.708-5.392a.632.632,0,0,0-1.225.257c-6.887-8.75-15.208-16.7-25.122-21.826-.735-.38-1.225.735-.527,1.127,11.507,6.507,20.061,15.686,28.553,26.531A166.967,166.967,0,0,1,57.754,266.7a47.965,47.965,0,0,0-27.1-20.392c-.76-.233-1.225.931-.429,1.164,15.343,4.9,26.1,15.576,30.539,29.632a1.225,1.225,0,0,0,.147.306c2.132,8.983,3.762,17.708,5.012,26.85-4.338-12.88-13.652-24.277-24.338-32.254-.65-.49-1.225.625-.588,1.1a70.477,70.477,0,0,1,25.478,37.132s0,0,0,.061c.466,5.772.674,11.593.613,17.426a.613.613,0,0,0,1.225,0,215.476,215.476,0,0,0-8.174-57.524c-2.831-13.2-1.8-26.96-.748-40.306C59.482,228.959,58.22,228.7,58.146,229.609Z" transform="translate(-13.449 -192.33)" fill="#fff" opacity="0.5"/><path d="M80.42,308.23H42.087a4.5,4.5,0,0,0-4.5,4.5v1.985a4.5,4.5,0,0,0,4.5,4.5h0L46.5,351.073H76.009L80.42,319.21h0a4.5,4.5,0,0,0,4.51-4.5v-1.985a4.5,4.5,0,0,0-4.51-4.5Z" transform="translate(-9.436 -171.651)" fill="#407bff"/><path d="M80.42,308.23H42.087a4.5,4.5,0,0,0-4.5,4.5v1.985a4.5,4.5,0,0,0,4.5,4.5h0L46.5,351.073H76.009L80.42,319.21h0a4.5,4.5,0,0,0,4.51-4.5v-1.985a4.5,4.5,0,0,0-4.51-4.5Z" transform="translate(-9.436 -171.651)" fill="#471ac3" opacity="0.99"/><path d="M78.684,323.74l.895-6.47H41.27l.895,6.47Z" transform="translate(-8.607 -169.613)" opacity="0.2"/></g><g transform="translate(335.215 105.641)"><path d="M341.823,128.28s21.948,18.872,21.948,30.061c0,10.269-21.8,21.3-31.384,22.72a78.573,78.573,0,0,1-8.983,0,4.9,4.9,0,0,1-4.62-3.26l-.11-.319a4.816,4.816,0,0,1,1.14-5.073,7.475,7.475,0,0,1,3.885-2.169c3.456-.539,8.321,4.326,8.321,4.326s21.286-12.806,21.286-15.147-9.718-10.012-12.622-14.252C338.257,141.613,335.744,136.515,341.823,128.28Z" transform="translate(-263.428 -76.711)" fill="#b97964"/><path d="M339.111,127.469c2.132,1.225,6.936,4.9,14.706,15.2,0,0-.282,5.576-10.22,10.8,0,0-10.613-8.149-10.515-16a13.358,13.358,0,0,1,3.676-9.718,2,2,0,0,1,2.353-.27Z" transform="translate(-260.116 -76.954)" fill="#7442ff"/><path d="M336.13,145.564a41.531,41.531,0,0,0,6.691,6.752l.784-.429c1-12.01-2.782-19.608-2.782-19.608l-3.75,5.122Z" transform="translate(-259.427 -75.809)" opacity="0.2"/><path d="M330.253,173.975a53.725,53.725,0,0,0,14.877-5.637c-2.01-1.471-2.6-6.581-2.77-8.958-5.466,3.676-11.715,7.475-12.72,8.088Z" transform="translate(-260.89 -69.699)" fill="#606060" opacity="0.2"/><path d="M340.43,150.553s8.848-4.779,11.642-11.973l1.654,2.794a23.014,23.014,0,0,1-11.581,10.943Z" transform="translate(-258.457 -74.389)" fill="#407bff"/><path d="M340.43,150.553s8.848-4.779,11.642-11.973l1.654,2.794a23.014,23.014,0,0,1-11.581,10.943Z" transform="translate(-258.457 -74.389)" fill="#fff" opacity="0.5"/><path d="M335.312,142.091l-1.225-1.581a1.838,1.838,0,0,0-1.74-.686L318,142.091a1.838,1.838,0,0,0-1.532,2.108l4.338,27.426a1.912,1.912,0,0,0,2.181,1.593l32.61-5.171a1.912,1.912,0,0,0,1.593-2.181l-3.8-23.946a1.826,1.826,0,0,0-2.1-1.52l-14.485,2.292a1.593,1.593,0,0,1-1.5-.6Z" transform="translate(-263.866 -74.113)" fill="#407bff"/><path d="M335.312,142.091l-1.225-1.581a1.838,1.838,0,0,0-1.74-.686L318,142.091a1.838,1.838,0,0,0-1.532,2.108l4.338,27.426a1.912,1.912,0,0,0,2.181,1.593l32.61-5.171a1.912,1.912,0,0,0,1.593-2.181l-3.8-23.946a1.826,1.826,0,0,0-2.1-1.52l-14.485,2.292a1.593,1.593,0,0,1-1.5-.6Z" transform="translate(-263.866 -74.113)" fill="#fff" opacity="0.4"/><path d="M351.1,140.294l-14.35,2.267a1.875,1.875,0,0,0-1.446,1.225l-.674,1.9a1.605,1.605,0,0,1-1.225,1.029l-14.485,2.292a1.85,1.85,0,0,0-1.532,2.1l3.211,20.416a1.912,1.912,0,0,0,2.181,1.593l32.61-5.171a1.912,1.912,0,0,0,1.593-2.181l-3.8-23.946a1.826,1.826,0,0,0-2.083-1.52Z" transform="translate(-263.658 -74.007)" fill="#407bff"/><path d="M351.1,140.294l-14.35,2.267a1.875,1.875,0,0,0-1.446,1.225l-.674,1.9a1.605,1.605,0,0,1-1.225,1.029l-14.485,2.292a1.85,1.85,0,0,0-1.532,2.1l3.211,20.416a1.912,1.912,0,0,0,2.181,1.593l32.61-5.171a1.912,1.912,0,0,0,1.593-2.181l-3.8-23.946a1.826,1.826,0,0,0-2.083-1.52Z" transform="translate(-263.658 -74.007)" fill="#fff" opacity="0.7"/><path d="M359.31,324l4.424,15.441,7.218-1.422-1.887-16.483Z" transform="translate(-254.2 -33.136)" fill="#b97964"/><path d="M364.366,334.5l8.517-1.544a.735.735,0,0,1,.772.417l2.794,6.654a1.152,1.152,0,0,1-.6,1.52.932.932,0,0,1-.245.074c-3.076.5-5.833.833-9.657,1.532-4.522.821-3.272,1.152-8.578,2.194-3.186.625-4.436-2.9-3.113-3.333,6.066-1.912,6.372-3.9,8.358-6.556a2.843,2.843,0,0,1,1.752-.956Z" transform="translate(-255.458 -30.565)" fill="#263238"/><path d="M307.97,321.1v20.465h7.671l3.958-19.987Z" transform="translate(-265.776 -33.236)" fill="#b97964"/><path d="M310.109,336.732l8.64.306a.711.711,0,0,1,.662.576l1.311,7.083a1.152,1.152,0,0,1-.919,1.36.809.809,0,0,1-.245,0c-3.113-.159-5.87-.429-9.8-.564-4.583-.159-3.431.429-8.823.306-3.247-.073-3.676-3.774-2.328-3.909,6.323-.564,7.046-2.451,9.559-4.608a2.769,2.769,0,0,1,1.949-.551Z" transform="translate(-268.05 -29.714)" fill="#263238"/><path d="M328.127,182.394l14.326-4.044s10.159,6.507,11.654,36.115c.613,11.9,4.007,21.09,3.529,43.639a40.673,40.673,0,0,0,4.24,19.007,98.6,98.6,0,0,1,7.916,22.451c4.289,19.191,9.6,63.136,9.6,63.136l-10.355,1.765s-9.6-32.573-22.218-65.146-21.47-82.327-21.47-82.327L322,182.394Z" transform="translate(-262.613 -65.422)" fill="#263238"/><path d="M333.114,211.11l-2.9.637-3.284,3.284-.846,3.358c1.311,6.581,3.358,16.311,5.968,27.169C337.011,217.924,333.114,211.11,333.114,211.11Z" transform="translate(-261.693 -58.035)" opacity="0.6"/><path d="M305.34,180.62,308,366.61h10.22s10.613-45.845,10.613-64.019c0-10.772-.711-22.144-1.287-29.644a41.666,41.666,0,0,1,2.047-16.446c3.37-10.012,8.652-27.255,9.338-38.517,0,0,13.382-.5,3.787-37.365Z" transform="translate(-266.369 -64.91)" fill="#263238"/><path d="M312.657,103.83,308,108.4a4.9,4.9,0,0,0,4.191,1.446Z" transform="translate(-265.769 -82.224)" fill="#a24e3f"/><path d="M338.028,107.486c-1.9,9.326-2.451,13.321-7.929,17.487-7.953,3.9-19.215,1.887-20.147-7.831-.833-8.738,2.451-22.475,12.157-24.987a12.99,12.99,0,0,1,15.931,15.331Z" transform="translate(-265.357 -84.949)" fill="#b97964"/><path d="M313.855,99.478a.429.429,0,0,1-.294-.208,2.9,2.9,0,0,0-2.12-1.642.38.38,0,0,1-.331-.4.392.392,0,0,1,.417-.343,3.676,3.676,0,0,1,2.708,2.047.368.368,0,0,1-.159.5h0A.478.478,0,0,1,313.855,99.478Z" transform="translate(-265.068 -83.791)" fill="#263238"/><path d="M315.852,116.9a10.429,10.429,0,0,1-5.122-1.446c1.691,3.591,5.27,5.515,9.289,5.944l-.135-1.973S320.24,117.031,315.852,116.9Z" transform="translate(-265.154 -79.604)" fill="#606060" opacity="0.2"/><path d="M317.71,128.139l.833-11.985s4.841-1.765,7.745,0c0,0,1.4,8.97,4.044,11.115Z" transform="translate(-263.58 -79.622)" fill="#b97964"/><path d="M310.092,102.307c-.172.686,0,1.348.5,1.458s.993-.38,1.152-1.054,0-1.348-.5-1.458S310.276,101.608,310.092,102.307Z" transform="translate(-265.312 -82.809)" fill="#263238"/><path d="M311.711,101.538a3,3,0,0,1-2.071-1.618,2.451,2.451,0,0,0,1.8,2.451Z" transform="translate(-265.4 -83.105)" fill="#263238"/><path d="M312.672,104.254a7.353,7.353,0,0,0-.1,5.613c.968,2.39,3.5,2.034,4.9,0,1.311-1.777,2.365-5.147.564-6.924a3.309,3.309,0,0,0-5.368,1.311Z" transform="translate(-264.853 -82.623)" fill="#b97964"/><path d="M336.13,100.71s5.049-4.816,1-8.358S337.7,96.151,336.13,100.71Z" transform="translate(-259.586 -85.023)" fill="#263238"/><path d="M320.336,94.1s-5.368-4.485-7.194-1.078S316.242,92.584,320.336,94.1Z" transform="translate(-264.698 -84.948)" fill="#263238"/><path d="M320.957,103l-7.941-2.586v-.172a1.311,1.311,0,0,0-.882-1.618l-1.446-.417a1.225,1.225,0,0,0-1.605.87l-1.52,5.147a1.716,1.716,0,0,0,.147,1.3,1.654,1.654,0,0,0,1,.809l.674.208h0a2.132,2.132,0,0,0,.478,0,1.7,1.7,0,0,0,1.63-1.225l1.225-4.252,7.9,2.537Zm-10.821-3.983a.613.613,0,0,1,.417,0l1.446.429a.539.539,0,0,1,.368.662v.159l-2.451-.784v-.1a.589.589,0,0,1,.221-.368Zm.711,6.2a.931.931,0,0,1-1.225.637l-.674-.2a.944.944,0,0,1-.564-.453.907.907,0,0,1-.074-.711l1.225-4.326,2.451.8Z" transform="translate(-265.883 -83.507)" fill="#263238"/><path d="M314.31,129.776s1.225-4.73,9.436-6.434a10.11,10.11,0,0,1,11.4,4.8Z" transform="translate(-264.347 -77.901)" fill="#407bff"/><path d="M314.31,129.776s1.225-4.73,9.436-6.434a10.11,10.11,0,0,1,11.4,4.8Z" transform="translate(-264.347 -77.901)" fill="#fff" opacity="0.5"/><path d="M305.439,194.21s33.235,4.105,43.847-4.007a90.685,90.685,0,0,1-2.059-25.919c1.017-13.823,5.282-27.463.735-34.938s-38.161-1.9-44.791,4.9S305.439,167.6,305.439,194.21Z" transform="translate(-267.412 -77.274)" fill="#7442ff"/><path d="M310.452,138.041l-2.745,8.2-6.127,7.708c.711,5.674,1.691,12.059,2.451,18.8a37.034,37.034,0,0,0,7.353-12.169c6-16.36,1.225-25.478,1.225-25.478Z" transform="translate(-267.217 -75.173)" opacity="0.2"/><path d="M314.838,112.254s-9.8,24.362,6.814,24.179,20.637-4.228,16.188-7.512,10.159-14.142,4.681-27.769c0,0-1.924-10.858-13.039-10.735a10.87,10.87,0,0,0-6.961-4.179,5.122,5.122,0,0,0-4.975,7.782l2.292,3.676S311.174,100.514,314.838,112.254Z" transform="translate(-264.875 -86.199)" fill="#263238"/><path d="M315.218,131.62s-8.162,1.8-9.8,12.059-2.573,18.039-5.576,19.044S282.682,152,282.682,152l.466-6.887a3.836,3.836,0,0,0-2.157-3.676l-1.066-.527a3.848,3.848,0,0,0-4.118.49l-.87.711a3.885,3.885,0,0,0-1.336,3.676c.551,2.757,1.691,7.193,3.676,8.578,0,0,19.877,22.855,25.808,20.478s10.4-16.752,12.818-22.72C317.8,147.416,320.329,142.171,315.218,131.62Z" transform="translate(-273.539 -75.958)" fill="#b97964"/><path d="M310.509,130.609c-2.218-1.422-11.458.282-13.639,21.495,0,0,7.353,6.127,14.2,5.306C311.036,157.41,320.044,136.773,310.509,130.609Z" transform="translate(-268.279 -76.271)" fill="#7442ff"/><path d="M296.521,146.42s7.144,6.127,16.09,5.8l-1.029,2.39s-7.586,1.667-15.392-5.821Z" transform="translate(-268.432 -72.621)" fill="#407bff"/><path d="M296.521,146.42s7.144,6.127,16.09,5.8l-1.029,2.39s-7.586,1.667-15.392-5.821Z" transform="translate(-268.432 -72.621)" fill="#fff" opacity="0.5"/><path d="M358.91,328.639l.968,3.811,12.132-2.316-.417-3.774Z" transform="translate(-254.291 -32.05)" fill="#7442ff"/><path d="M306.48,330.4l.147,3.787h12.549l.76-3.787Z" transform="translate(-266.112 -31.139)" fill="#7442ff"/></g></g></svg>