<svg xmlns="http://www.w3.org/2000/svg" width="72" height="72" viewBox="0 0 72 72"><g transform="translate(-1854 -160)"><rect width="72" height="72" transform="translate(1854 160)" fill="#0a0a26"/><path d="M21.957,4a2.052,2.052,0,0,1,1.526.692l3.735,4.092a2.464,2.464,0,0,1,.632,1.671v18.6a1.363,1.363,0,0,1-1.295,1.418H9.295A1.363,1.363,0,0,1,8,29.052V5.418A1.363,1.363,0,0,1,9.295,4Zm-.148.945H9.295a.454.454,0,0,0-.432.473V29.052a.454.454,0,0,0,.432.473H26.555a.454.454,0,0,0,.432-.473V10.618H23.1A1.363,1.363,0,0,1,21.809,9.2Zm.863.236V9.2a.454.454,0,0,0,.432.473h3.668a1.317,1.317,0,0,0-.164-.22L22.872,5.361A1.581,1.581,0,0,0,22.672,5.182Zm0,8.272A1.815,1.815,0,0,1,24.4,15.344a1.733,1.733,0,1,1-3.452,0A1.815,1.815,0,0,1,22.672,13.454Zm0,.827a1.068,1.068,0,1,0,.971,1.064A1.021,1.021,0,0,0,22.672,14.281Zm-7.336,2.2a.824.824,0,0,1,.61.277l2.842,3.113L19.9,18.653a.811.811,0,0,1,1.22,0l3.884,4.254h.666a.436.436,0,0,1,.45.473.462.462,0,0,1-.45.473H10.166a.473.473,0,0,1,0-.945H20.335l-5-5.476-3.579,3.92a.405.405,0,0,1-.61,0,.5.5,0,0,1,0-.668l3.579-3.92A.824.824,0,0,1,15.336,16.485Zm5.178,2.836L19.4,20.544l2.158,2.363h2.232Zm5.178,7.367a.454.454,0,0,1,.432.473v.945a.433.433,0,1,1-.863,0v-.945A.454.454,0,0,1,25.692,26.689Zm-2.158,0a.454.454,0,0,1,.432.473v.945a.433.433,0,1,1-.863,0v-.945A.454.454,0,0,1,23.535,26.689Zm-2.158,0a.454.454,0,0,1,.432.473v.945a.433.433,0,1,1-.863,0v-.945A.454.454,0,0,1,21.377,26.689Zm-2.158,0a.454.454,0,0,1,.432.473v.945a.433.433,0,1,1-.863,0v-.945A.454.454,0,0,1,19.22,26.689Zm-2.158,0a.454.454,0,0,1,.432.473v.945a.433.433,0,1,1-.863,0v-.945A.454.454,0,0,1,17.062,26.689Zm-2.158,0a.454.454,0,0,1,.432.473v.945a.433.433,0,1,1-.863,0v-.945A.454.454,0,0,1,14.9,26.689Zm-2.158,0a.454.454,0,0,1,.432.473v.945a.433.433,0,1,1-.863,0v-.945A.454.454,0,0,1,12.747,26.689Zm-2.158,0a.454.454,0,0,1,.432.473v.945a.433.433,0,1,1-.863,0v-.945A.454.454,0,0,1,10.589,26.689Z" transform="translate(1872.5 178.5)" fill="#7442ff" stroke="#7442ff" stroke-linecap="round" stroke-width="0.3"/></g></svg>