<svg xmlns="http://www.w3.org/2000/svg" width="47" height="47" viewBox="0 0 47 47"><g transform="translate(-31 -16)"><circle cx="23.5" cy="23.5" r="23.5" transform="translate(31 16)" fill="#7442ff"/><g transform="translate(37 27)"><path d="M33.56-641.762a2.106,2.106,0,0,0-1.2,1.181l-.108.269-.024,8.343-.024,8.348-6.251-6.29c-6.819-6.859-6.437-6.5-7.123-6.614a1.911,1.911,0,0,0-1.739.627,1.661,1.661,0,0,0-.51,1.347,1.221,1.221,0,0,0,.191.848c.186.358.554.735,7.285,7.515,9.4,9.465,9.058,9.132,9.421,9.269a2.1,2.1,0,0,0,1.626-.054c.191-.088,1.773-1.646,8.382-8.245,7.868-7.858,8.152-8.152,8.328-8.5a1.293,1.293,0,0,0,.176-.833,1.667,1.667,0,0,0-.51-1.347,1.934,1.934,0,0,0-2.317-.446c-.206.1-1.44,1.308-6.575,6.447-3.478,3.473-6.334,6.315-6.354,6.315s-.044-3.787-.049-8.417l-.015-8.412-.152-.318a2.033,2.033,0,0,0-.95-.95,1.527,1.527,0,0,0-.784-.167A1.732,1.732,0,0,0,33.56-641.762Z" transform="translate(-16.579 641.848)" fill="#f0f0f0"/></g></g></svg>