<svg xmlns="http://www.w3.org/2000/svg" width="72" height="72" viewBox="0 0 72 72"><g transform="translate(-2047 -71)"><rect width="72" height="72" transform="translate(2047 71)" fill="#0a0a26"/><g transform="translate(2073.242 93.71)"><g transform="translate(0)"><path d="M83.689,5.676,78.175.162A.551.551,0,0,0,77.785,0H66.206A2.208,2.208,0,0,0,64,2.206V24.262a2.208,2.208,0,0,0,2.206,2.206h15.44a2.208,2.208,0,0,0,2.206-2.206V6.066A.551.551,0,0,0,83.689,5.676ZM78.337,1.883l3.632,3.632H79.439a1.1,1.1,0,0,1-1.1-1.1Zm4.411,22.38a1.1,1.1,0,0,1-1.1,1.1H66.206a1.1,1.1,0,0,1-1.1-1.1V2.206a1.1,1.1,0,0,1,1.1-1.1H77.234V4.411A2.208,2.208,0,0,0,79.44,6.617h3.308Z" transform="translate(-64 0)" fill="#7442ff"/><path d="M137.428,178.031a15.976,15.976,0,0,1-1.319-1.138c-.42-.42-.794-.827-1.12-1.215a12.345,12.345,0,0,0,.73-2.807c0-1.83-.661-2.206-1.654-2.206-.754,0-1.654.392-1.654,2.258a5.287,5.287,0,0,0,1.344,2.983c-.219.667-.475,1.437-.764,2.3-.139.416-.29.8-.449,1.158-.13.058-.256.116-.377.177-.438.219-.855.416-1.241.6-1.761.834-2.924,1.385-2.924,2.474,0,.791.859,1.28,1.654,1.28,1.025,0,2.573-1.369,3.7-3.676a21.939,21.939,0,0,1,3.785-1.021,6.326,6.326,0,0,0,2.436,1.389c1.367,0,1.654-.791,1.654-1.453,0-1.3-1.49-1.3-2.206-1.3A13.067,13.067,0,0,0,137.428,178.031Zm-7.774,4.766a.871.871,0,0,1-.551-.177c0-.391,1.166-.943,2.293-1.478l.218-.1C130.786,182.24,129.967,182.8,129.654,182.8Zm3.86-9.873c0-1.156.359-1.156.551-1.156.39,0,.551,0,.551,1.1a8.842,8.842,0,0,1-.439,1.722A3.388,3.388,0,0,1,133.514,172.924Zm.423,5.927q.052-.144.1-.291c.2-.614.389-1.165.553-1.662q.343.378.74.774c.1.1.36.336.7.627C135.351,178.448,134.628,178.632,133.937,178.851Zm6.194.287c0,.248,0,.351-.512.354a4.064,4.064,0,0,1-.926-.529c.156-.017.27-.026.335-.026C139.843,178.937,140.074,179.017,140.131,179.138Z" transform="translate(-124.692 -161.843)" fill="#7442ff"/></g></g></g></svg>