<svg xmlns="http://www.w3.org/2000/svg" width="27.892" height="21.897" viewBox="0 0 27.892 21.897"><g transform="translate(0 0)"><path d="M23.239,62.287a9.587,9.587,0,0,0-18.86,1.638,5.229,5.229,0,0,0,.872,10.389H9.608V72.571H5.251a3.486,3.486,0,1,1,0-6.972.872.872,0,0,0,.872-.872A7.844,7.844,0,0,1,21.662,63.2a.872.872,0,0,0,.741.7,4.358,4.358,0,0,1-.593,8.672H18.324v1.743H21.81a6.1,6.1,0,0,0,1.429-12.027Z" transform="translate(0 -55.032)" fill="#aa8bff"/><path d="M184.521,249.264l-3.486,3.486,1.229,1.229,2-2v8.358h1.743v-8.358l2,2,1.229-1.229-3.486-3.486A.872.872,0,0,0,184.521,249.264Z" transform="translate(-171.174 -238.445)" fill="#aa8bff"/></g></svg>