<svg xmlns="http://www.w3.org/2000/svg" width="72" height="72" viewBox="0 0 72 72"><g transform="translate(-1949 -53)"><g transform="translate(95 -96)"><g transform="translate(-193 78)"><rect width="72" height="72" transform="translate(2047 71)" fill="#0a0a26"/></g></g><g transform="translate(-50.925 -67.944)"><path d="M83.689,5.676,78.175.162A.551.551,0,0,0,77.785,0H66.206A2.208,2.208,0,0,0,64,2.206V24.262a2.208,2.208,0,0,0,2.206,2.206h15.44a2.208,2.208,0,0,0,2.206-2.206V6.066A.551.551,0,0,0,83.689,5.676ZM78.337,1.883l3.632,3.632H79.439a1.1,1.1,0,0,1-1.1-1.1Zm4.411,22.38a1.1,1.1,0,0,1-1.1,1.1H66.206a1.1,1.1,0,0,1-1.1-1.1V2.206a1.1,1.1,0,0,1,1.1-1.1H77.234V4.411A2.208,2.208,0,0,0,79.44,6.617h3.308Z" transform="translate(1962 143.71)" fill="#7442ff"/><g transform="translate(-26.306 3)"><path d="M80.21,349.227a.5.5,0,0,0,.693-.12l1.214-1.724,1.213,1.724a.5.5,0,1,0,.814-.572l-1.418-2.015,1.2-1.71a.5.5,0,0,0-.813-.573l-1,1.419-1-1.418a.5.5,0,1,0-.814.572l1.2,1.71-1.42,2.015A.5.5,0,0,0,80.21,349.227Z" transform="translate(1976.001 -186.025)" fill="#7442ff"/><path d="M162.017,349.306a4.045,4.045,0,0,0,.54.011l1.052,0a.5.5,0,0,0-.006-.995l-1,0v-3.8a.5.5,0,1,0-.995,0v4.294A.5.5,0,0,0,162.017,349.306Z" transform="translate(1899.515 -186.024)" fill="#7442ff"/><path d="M215.848,349.318a1.733,1.733,0,0,0,1.769-1.342,1.581,1.581,0,0,0-1.224-1.738c-.535-.2-1.032-.412-1.177-.476a.336.336,0,0,1-.124-.32.47.47,0,0,1,.37-.377,1.471,1.471,0,0,1,1.219.281.5.5,0,0,0,.638-.764,2.463,2.463,0,0,0-2.144-.47,1.473,1.473,0,0,0-1.068,1.188,1.327,1.327,0,0,0,.592,1.313.493.493,0,0,0,.069.038c.025.011.616.274,1.281.519.2.073.651.28.589.629a.765.765,0,0,1-.79.521,1.536,1.536,0,0,1-1.129-.474.5.5,0,1,0-.737.668A2.546,2.546,0,0,0,215.848,349.318Z" transform="translate(1850.825 -186.025)" fill="#7442ff"/></g><path d="M188.358,129.167a.905.905,0,0,0-.9-.91H177.253a.905.905,0,0,0-.9.91v6.11a.9.9,0,0,0,.9.91H187.46a.9.9,0,0,0,.9-.91v-6.11Zm-7.423,3.791v-1.471h2.843v1.471Zm2.843.88v1.471h-2.843v-1.471Zm-6.555-2.35h2.843v1.471h-2.843Zm3.712-.88v-1.471h2.843v1.471Zm3.712.88h2.843v1.471h-2.843Zm2.843-2.32v1.44h-2.843v-1.471h2.814A.03.03,0,0,1,187.49,129.167Zm-10.237-.03h2.814v1.471h-2.843v-1.44A.03.03,0,0,1,177.253,129.137Zm-.03,6.141v-1.44h2.843v1.471h-2.814A.03.03,0,0,1,177.223,135.277Zm10.237.03h-2.814v-1.471h2.843v1.44A.03.03,0,0,1,187.46,135.308Z" transform="translate(1853.569 23)" fill="#7442ff"/></g></g></svg>